<svg xmlns="http://www.w3.org/2000/svg" viewBox="0 0 723.59 405.2"><title>cow</title><g id="Layer_2" data-name="Layer 2"><g id="Layer_1-2" data-name="Layer 1"><path id="cowline" d="M108,4.26c56-.54-6.66,13.31,363.19,13.31,20.54,4.77,81.35,14.75,110.55,14.76,57.57,0,41.74-11.43,58.46-16.79,8.28-2.65,17,5.72,19.1,5.21,5.17-1.28,8-6.62,10-6.94,3.41,2.71,5.1-2.77,8.39-3,4.82,4.13-13.51,14.7-13.89,17.36,1.13,1.48.89,4.51,4.2,9.84,1.3,2.1,3.2,3.73,4.63,5.64.8,1.08,1.23,2.39,2,3.48,30.73,26.89,19.14,42.85,22,48.33.13.26,21.17,26.43,23.73,30.67,5.4,9,1.28,24.07-13.46,30.53-6.63,2.91-7.19,1.71-9.4,2.17-10.85,2.31-15-2.41-18.38-4.48-6.37-4-41.47-10.26-41.53-10.27-7.47-2.28-16-8.16-26-4.35-17.69,6.72-18.44,21-37.91,42.11-11,11.94-12,11.91-14.62,15.92-6.93,10.4-6.43,28.16-18.52,31.54-3.38,1-5.22-1.53-12.3,1.74-2.14,1-1.88,1.48-14.18,9.26-22,13.89-35.82,17.05-37,18.67-2.18,2.87-6.28,23.61-6.37,23.87s-7.36,21.1-8.54,25c-2.34,7.81-3.56,54-1.73,59.62.95,3,2.39,3.75,3.76,5.93,1,1.67,1.23,4,2.31,5.65,11.86,18.12,21.75,24.59,5.79,24.59-27.29,0-25,.4-28.65-4.48-1.58-2.12-4.12-3.61-5.21-6.22-6.75-16.24,6.41-17.57-4.19-25-1.62-1.13-3.14-1.16-3.91-4.34,0-3.91-1.58-3.35-2.32-6.51,0-10,4.34-25.17,4.34-39.65,0-26.74-4.05-19.59-4.05-35.16,0-37.27,5-23.66-49.19-46-53.1-21.9-85.17,32.39-174.51-14.18-22.42-11.69-18.46-16-44.13,11.86-4.1,4.45-6.61,4.36-8,6.37-1.8,2.67,1.58,10.21,0,13.31-1,1.92-2.24,1.39-4,2.32-.94.48-1.43,1.33-2.75,1.44-6-5.95-.26-13.72-8.39-11.43-12.82,3.62-13.81.82-15.78,2.32-2.93,2.24,2.14,10.56-4.34,10.56-3.75,1-26.4,56.81-20.83,80.16,0,30.48-.36,19.92,7.66,32.85,2.37,3.81-.78,2.14,4.35,9.26,10.81,15,9.48,14.92-2,14.76-2.76,4,10.47,8.39-16.5,8.39-26.08,0-20.44-.34-24.74-6.51-6.34-9.09,2.46-9.73-.29-19.39s-6.5-8.57-9.55-10.85c-2.55-1.91,9.35-40.32-3-88.85-1.67-24.29-4.37-5.84,2.75-29.51,3.16-27.4,7.68-26.44-.58-50.79-13.92-41.06-14-118.06-13.6-119.81,0-28.41,18.14-36.36,10.42-39.65-8.63-3.68-25.18,6.45-25.18,37,0,40.4,29.27,110.17-17.8,155-2.88-.59-.87-2.15,4.2-10.27C53.08,155.3-10.65,69.44,33,29.29,61.24,3.32,105,6.12,108,4.26Z" fill="none" stroke="#231f20" stroke-miterlimit="10" stroke-width="2"/><path id="cowfill" d="M101.17,0c56-.55-6.65,13.31,363.19,13.31,20.54,4.77,81.35,14.75,110.55,14.76,57.58,0,41.74-11.43,58.46-16.79,8.29-2.65,17,5.72,19.1,5.21,5.17-1.29,8-6.62,10-6.94,3.42,2.71,5.1-2.78,8.4-3,4.82,4.13-13.52,14.7-13.89,17.36,1.12,1.48.88,4.5,4.19,9.84,1.3,2.1,3.2,3.72,4.63,5.64.8,1.08,1.23,2.39,2,3.48,30.73,26.88,19.13,42.85,22,48.33.14.26,21.17,26.42,23.73,30.67,5.4,9,1.29,24.07-13.45,30.53-6.64,2.91-7.2,1.7-9.41,2.17-10.84,2.3-15-2.41-18.38-4.48-6.37-4-41.46-10.26-41.52-10.28-7.48-2.27-16-8.16-26-4.34-17.68,6.72-18.44,21-37.91,42.11-11,11.94-11.95,11.91-14.62,15.92-6.92,10.4-6.43,28.15-18.52,31.54-3.37.95-5.21-1.53-12.3,1.74-2.13,1-1.87,1.48-14.18,9.26-22,13.89-35.82,17-37,18.66-2.18,2.88-6.28,23.62-6.37,23.88s-7.35,21.1-8.53,25c-2.35,7.81-3.56,54-1.74,59.62,1,3,2.4,3.75,3.76,5.93,1,1.67,1.23,4,2.32,5.64,11.86,18.13,21.74,24.6,5.79,24.6-27.3,0-25,.4-28.66-4.48-1.57-2.12-4.12-3.61-5.2-6.23-6.76-16.23,6.41-17.57-4.2-25-1.62-1.13-3.14-1.16-3.91-4.34,0-3.91-1.58-3.35-2.31-6.51,0-10,4.34-25.17,4.34-39.65,0-26.74-4.05-19.59-4.05-35.16,0-37.27,5-23.66-49.2-46-53.1-21.9-85.17,32.39-174.51-14.18-22.41-11.69-18.46-16-44.13,11.86-4.1,4.45-6.6,4.36-8,6.37-1.8,2.67,1.59,10.2,0,13.31-1,1.92-2.23,1.39-4.05,2.32-.94.48-1.42,1.33-2.75,1.44-6-6-.26-13.72-8.39-11.43-12.81,3.62-13.81.82-15.77,2.32-2.94,2.24,2.14,10.56-4.34,10.56-3.76,1-26.4,56.8-20.84,80.16,0,30.48-.35,19.92,7.67,32.85,2.36,3.81-.79,2.13,4.34,9.26,10.81,15,9.48,14.92-2,14.76-2.76,4,10.47,8.39-16.49,8.39-26.08,0-20.45-.34-24.75-6.51-6.33-9.09,2.46-9.73-.29-19.39s-6.5-8.58-9.55-10.85c-2.55-1.91,9.36-40.32-3-88.85-1.68-24.29-4.37-5.85,2.75-29.52,3.16-27.39,7.67-26.44-.58-50.78C33.57,153,33.49,76,33.88,74.25,33.88,45.84,52,37.89,44.3,34.6c-8.62-3.68-25.17,6.45-25.17,37,0,40.4,29.26,110.16-17.8,155-2.89-.59-.88-2.15,4.19-10.27,40.77-65.28-23-151.14,20.7-191.29C54.45-.92,98.22,1.88,101.17,0Z" fill="#231f20"/></g></g></svg>