<svg xmlns="http://www.w3.org/2000/svg" viewBox="0 0 716.81 400.96"><title>cowparts</title><g id="Layer_2" data-name="Layer 2"><g id="Layer_1-2" data-name="Layer 1"><path d="M44.8,35.1s.57,1.24,1.69,3.41C47,37,46.66,35.89,44.8,35.1Z" fill="none" stroke="#c7e2b1" stroke-miterlimit="10"/><path d="M137.81,123.45c4-8.48,7.3-15.79,8.92-21.32,5.46-18.61,11.48-51.93-.44-97.28C127.4,2.32,123.73.3,101.67.52c-3,1.86-46.72-.94-74.95,25C-16.94,65.7,46.79,151.56,6,216.84,1,225-1.06,226.52,1.83,227.11c47.06-44.81,17.79-114.57,17.8-155,0-30.59,16.55-40.72,25.17-37,1.86.79,2.21,1.86,1.69,3.41C53.87,52.87,85.42,108.54,137.81,123.45Z" fill="none" stroke="#c7e2b1" stroke-miterlimit="10"/><path d="M146.73,102.13c-1.62,5.53-4.89,12.84-8.92,21.32a97,97,0,0,0,15.76,3.11c23.28,2.59,80.59,4.49,146.86,5.88,4.41-44,4.56-87.55,4.16-119.78-99.35-1.74-137.79-5.07-158.3-7.81C158.21,50.2,152.19,83.52,146.73,102.13Z" fill="none" stroke="#c7e2b1" stroke-miterlimit="10"/><path d="M104.71,213.53c2.27-29.26,21.08-64.82,33.1-90.08C85.42,108.54,53.87,52.87,46.49,38.51,44.84,43.4,34.38,53.17,34.38,74.75,34,76.5,34.07,153.5,48,194.56c8.25,24.34,3.74,23.39.58,50.78-7.12,23.67-4.43,5.23-2.75,29.52,12.39,48.53.48,86.94,3,88.85,3,2.27,6.84,1.31,9.55,10.85s-6,10.3.29,19.39c4.3,6.17-1.33,6.51,24.75,6.51,27,0,13.73-4.35,16.49-8.39,11.51.16,12.84.27,2-14.76-5.13-7.13-2-5.45-4.34-9.26-8-12.93-7.67-2.37-7.67-32.85-5-21.2,13.14-69.13,19.35-78.55C105.51,241.83,103.67,227,104.71,213.53Z" fill="none" stroke="#c7e2b1" stroke-miterlimit="10"/><path d="M300.43,132.44c59.11,1.24,125.35,2.07,180.94,2.61C502.62,72,511.23,24,511.23,24S502.62,72,481.37,135.05c58.49.57,105.19.81,119.39.88-15.32-36.11-25.71-75.47-29.85-107.41-30.55-.9-86.51-10.16-106-14.69-66.24,0-118.61-.45-160.27-1.17C305,44.89,304.84,88.41,300.43,132.44Z" fill="none" stroke="#c7e2b1" stroke-miterlimit="10"/><path d="M402.77,13.68C402.77,36.66,393,134,393,134S402.77,36.66,402.77,13.68Z" fill="none" stroke="#c7e2b1" stroke-miterlimit="10"/><path d="M293.44,181.77H464.15c6.48-16.12,12.21-31.84,17.22-46.72-55.59-.54-121.83-1.37-180.94-2.61-3.68,36.77-10.35,73.88-22.17,105.05,36.08-2.52,61.12-18.76,94.43-5,49.12,20.25,49.61,11,49.28,36.8a685.81,685.81,0,0,0,42.18-87.5Z" fill="none" stroke="#c7e2b1" stroke-miterlimit="10"/><path d="M601.47,137.62a36.15,36.15,0,0,1,3.75-1.67l-4.46,0C601,136.5,601.23,137.06,601.47,137.62Z" fill="none" stroke="#c7e2b1" stroke-miterlimit="10"/><path d="M714,122.35c-2.56-4.25-23.59-30.41-23.73-30.67-2.86-5.48,8.74-21.45-22-48.33-.8-1.09-1.23-2.4-2-3.48-1.43-1.92-3.33-3.54-4.63-5.64-3.31-5.34-3.07-8.36-4.19-9.84.37-2.66,18.71-13.23,13.89-17.36-3.3.26-5,5.75-8.4,3-2,.32-4.81,5.65-10,6.94-2.06.51-10.81-7.86-19.1-5.21-16.72,5.36-.88,16.79-58.46,16.79-1.43,0-2.93,0-4.5-.07,4.14,31.94,14.53,71.3,29.85,107.41l4.46,0c10-3.82,18.57,2.07,26,4.34.06,0,35.15,6.32,41.52,10.28,3.34,2.07,7.54,6.78,18.38,4.48,2.21-.47,2.77.74,9.41-2.17C715.32,146.42,719.43,131.31,714,122.35Z" fill="none" stroke="#c7e2b1" stroke-miterlimit="10"/><path d="M153.57,126.56c-5.38,14.62,29.7,33.6,25.59,82.69,4.42.19,9.18,3.9,19,9,33.3,17.35,58.64,20.7,80.08,19.2,11.82-31.17,18.49-68.28,22.17-105C234.16,131.05,176.85,129.15,153.57,126.56Z" fill="none" stroke="#c7e2b1" stroke-miterlimit="10"/><path d="M153.57,126.56a97,97,0,0,1-15.76-3.11c-12,25.26-30.83,60.82-33.1,90.08-1,13.46.8,28.3,4.59,43.12.63-1,1.14-1.52,1.49-1.61,6.48,0,1.4-8.33,4.34-10.56,2-1.5,3,1.3,15.77-2.32,8.13-2.29,2.38,5.48,8.39,11.43,1.33-.11,1.81-1,2.75-1.44,1.82-.93,3.07-.4,4.05-2.32,1.59-3.11-1.8-10.64,0-13.31,1.36-2,3.86-1.92,8-6.37,14.4-15.64,19.48-21.14,25.11-20.9C183.27,160.16,148.19,141.18,153.57,126.56Z" fill="none" stroke="#c7e2b1" stroke-miterlimit="10"/><path d="M481.37,135.05c-5,14.88-10.74,30.6-17.22,46.72h0A685.81,685.81,0,0,1,422,269.27c0,2.67-.08,5.72-.08,9.21,0,15.57,4.05,8.42,4.05,35.16,0,14.48-4.34,29.68-4.34,39.65.73,3.16,2.31,2.6,2.31,6.51.77,3.18,2.29,3.21,3.91,4.34,10.61,7.46-2.56,8.8,4.2,25,1.08,2.62,3.63,4.11,5.2,6.23,3.64,4.88,1.36,4.48,28.66,4.48,15.95,0,6.07-6.47-5.79-24.6-1.09-1.66-1.28-4-2.32-5.64-1.36-2.18-2.8-3-3.76-5.93-1.82-5.67-.61-51.81,1.74-59.62,1.18-3.93,8.43-24.77,8.53-25s4.19-21,6.37-23.88c1.22-1.61,15.08-4.77,37-18.66,12.31-7.78,12.05-8.28,14.18-9.26,7.09-3.27,8.93-.79,12.3-1.74,12.09-3.39,11.6-21.14,18.52-31.54,2.67-4,3.62-4,14.62-15.92,18-19.53,20-33.17,34.16-40.44-.24-.56-.47-1.12-.71-1.69C586.56,135.86,539.86,135.62,481.37,135.05Z" fill="none" stroke="#c7e2b1" stroke-miterlimit="10"/></g></g></svg>