<svg xmlns="http://www.w3.org/2000/svg" viewBox="0 0 721.81 405.96"><title>cowtext</title><g id="Layer_2" data-name="Layer 2"><g id="Layer_1-2" data-name="Layer 1"><path d="M47.3,37.6S47.87,38.84,49,41C49.51,39.46,49.16,38.39,47.3,37.6Z" fill="none" stroke="#b84d26" stroke-linecap="round" stroke-linejoin="round" stroke-width="6"/><path d="M140.31,126c4-8.48,7.3-15.79,8.92-21.32,5.46-18.61,11.48-51.93-.44-97.28C129.9,4.82,126.23,2.8,104.17,3c-3,1.86-46.72-.94-74.95,25-43.66,40.15,20.07,126-20.7,191.29-5.07,8.12-7.08,9.68-4.19,10.27C51.39,184.8,22.12,115,22.13,74.64c0-30.59,16.55-40.72,25.17-37,1.86.79,2.21,1.86,1.69,3.41C56.37,55.37,87.92,111,140.31,126Z" fill="none" stroke="#b84d26" stroke-linecap="round" stroke-linejoin="round" stroke-width="6"/><path d="M149.23,104.63c-1.62,5.53-4.89,12.84-8.92,21.32a97,97,0,0,0,15.76,3.11c23.28,2.59,80.59,4.49,146.86,5.88,4.41-44,4.56-87.55,4.16-119.78-99.35-1.74-137.79-5.07-158.3-7.81C160.71,52.7,154.69,86,149.23,104.63Z" fill="none" stroke="#b84d26" stroke-linecap="round" stroke-linejoin="round" stroke-width="6"/><path d="M107.21,216c2.27-29.26,21.08-64.82,33.1-90.08C87.92,111,56.37,55.37,49,41,47.34,45.9,36.88,55.67,36.88,77.25,36.49,79,36.57,156,50.49,197.06c8.25,24.34,3.74,23.39.58,50.78-7.12,23.67-4.43,5.23-2.75,29.52,12.39,48.53.48,86.94,3,88.85,3,2.27,6.84,1.31,9.55,10.85s-6,10.3.29,19.39c4.3,6.17-1.33,6.51,24.75,6.51,27,0,13.73-4.35,16.49-8.39,11.51.16,12.84.27,2-14.76-5.13-7.13-2-5.45-4.34-9.26-8-12.93-7.67-2.37-7.67-32.85-5-21.2,13.14-69.13,19.35-78.55C108,244.33,106.17,229.49,107.21,216Z" fill="none" stroke="#b84d26" stroke-linecap="round" stroke-linejoin="round" stroke-width="6"/><path d="M302.93,134.94c59.11,1.24,125.35,2.07,180.94,2.61,21.25-63,29.86-111.1,29.86-111.1s-8.61,48.08-29.86,111.1c58.49.57,105.19.81,119.39.88C587.94,102.32,577.55,63,573.41,31c-30.55-.9-86.51-10.16-106-14.69-66.24,0-118.61-.45-160.27-1.17C307.49,47.39,307.34,90.91,302.93,134.94Z" fill="none" stroke="#b84d26" stroke-linecap="round" stroke-linejoin="round" stroke-width="6"/><path d="M405.27,16.18c0,23-9.79,120.33-9.79,120.33S405.27,39.16,405.27,16.18Z" fill="none" stroke="#b84d26" stroke-linecap="round" stroke-linejoin="round" stroke-width="6"/><path d="M295.94,184.27H466.65c6.48-16.12,12.21-31.84,17.22-46.72-55.59-.54-121.83-1.37-180.94-2.61-3.68,36.77-10.35,73.88-22.17,105.05,36.08-2.52,61.12-18.76,94.43-5,49.12,20.25,49.61,11,49.28,36.8a685.81,685.81,0,0,0,42.18-87.5Z" fill="none" stroke="#b84d26" stroke-linecap="round" stroke-linejoin="round" stroke-width="6"/><path d="M604,140.12a36.15,36.15,0,0,1,3.75-1.67l-4.46,0C603.5,139,603.73,139.56,604,140.12Z" fill="none" stroke="#b84d26" stroke-linecap="round" stroke-linejoin="round" stroke-width="6"/><path d="M716.53,124.85C714,120.6,692.94,94.44,692.8,94.18c-2.86-5.48,8.74-21.45-22-48.33-.8-1.09-1.23-2.4-2-3.48-1.43-1.92-3.33-3.54-4.63-5.64-3.31-5.34-3.07-8.36-4.19-9.84.37-2.66,18.71-13.23,13.89-17.36-3.3.26-5,5.75-8.4,3-2,.32-4.81,5.65-10,6.94-2.06.51-10.81-7.86-19.1-5.21-16.72,5.36-.88,16.79-58.46,16.79-1.43,0-2.93,0-4.5-.07,4.14,31.94,14.53,71.3,29.85,107.41l4.46,0c10-3.82,18.57,2.07,26,4.34.06,0,35.15,6.32,41.52,10.28,3.34,2.07,7.54,6.78,18.38,4.48,2.21-.47,2.77.74,9.41-2.17C717.82,148.92,721.93,133.81,716.53,124.85Z" fill="none" stroke="#b84d26" stroke-linecap="round" stroke-linejoin="round" stroke-width="6"/><path d="M156.07,129.06c-5.38,14.62,29.7,33.6,25.59,82.69,4.42.19,9.18,3.9,19,9,33.3,17.35,58.64,20.7,80.08,19.2,11.82-31.17,18.49-68.28,22.17-105C236.66,133.55,179.35,131.65,156.07,129.06Z" fill="none" stroke="#b84d26" stroke-linecap="round" stroke-linejoin="round" stroke-width="6"/><path d="M156.07,129.06A97,97,0,0,1,140.31,126c-12,25.26-30.83,60.82-33.1,90.08-1,13.46.8,28.3,4.59,43.12.63-1,1.14-1.52,1.49-1.61,6.48,0,1.4-8.33,4.34-10.56,2-1.5,3,1.3,15.77-2.32,8.13-2.29,2.38,5.48,8.39,11.43,1.33-.11,1.81-1,2.75-1.44,1.82-.93,3.07-.4,4.05-2.32,1.59-3.11-1.8-10.64,0-13.31,1.36-2,3.86-1.92,8-6.37C171,217,176,211.51,181.66,211.75,185.77,162.66,150.69,143.68,156.07,129.06Z" fill="none" stroke="#b84d26" stroke-linecap="round" stroke-linejoin="round" stroke-width="6"/><path d="M483.87,137.55c-5,14.88-10.74,30.6-17.22,46.72h0a685.81,685.81,0,0,1-42.18,87.5c0,2.67-.08,5.72-.08,9.21,0,15.57,4.05,8.42,4.05,35.16,0,14.48-4.34,29.68-4.34,39.65.73,3.16,2.31,2.6,2.31,6.51.77,3.18,2.29,3.21,3.91,4.34,10.61,7.46-2.56,8.8,4.2,25,1.08,2.62,3.63,4.11,5.2,6.23,3.64,4.88,1.36,4.48,28.66,4.48,15.95,0,6.07-6.47-5.79-24.6-1.09-1.66-1.28-4-2.32-5.64-1.36-2.18-2.8-3-3.76-5.93-1.82-5.67-.61-51.81,1.74-59.62,1.18-3.93,8.43-24.77,8.53-25s4.19-21,6.37-23.88c1.22-1.61,15.08-4.77,37-18.66,12.31-7.78,12.05-8.28,14.18-9.26,7.09-3.27,8.93-.79,12.3-1.74,12.09-3.39,11.6-21.14,18.52-31.54,2.67-4,3.62-4,14.62-15.92,18-19.53,20-33.17,34.16-40.44-.24-.56-.47-1.12-.71-1.69C589.06,138.36,542.36,138.12,483.87,137.55Z" fill="none" stroke="#b84d26" stroke-linecap="round" stroke-linejoin="round" stroke-width="6"/><text transform="translate(66.92 55.93)" font-size="28.13" fill="#b84d26" font-family="DunbarTall-Bold, Dunbar Tall" font-weight="700"><tspan letter-spacing="-0.02em">R</tspan><tspan x="16.99" y="0">UMP</tspan></text></g></g></svg>