<svg xmlns="http://www.w3.org/2000/svg" viewBox="0 0 721.81 405.96"><title>electric-cow</title><g id="Layer_2" data-name="Layer 2"><g id="Layer_4" data-name="Layer 4"><path d="M149.23,124.64c-1.62,5.52-4.89,12.83-8.92,21.31C87.92,131,56.37,55.38,49,41c2.79-8.38-26.86-8.38-26.86,33.64,0,40.38,29.27,110.15-17.8,155-2.88-.6-.87-2.16,4.2-10.28C49.29,154.05-14.44,68.2,29.21,28c28.24-26,72-23.16,75-25,22.06-.22,25.72,1.8,44.62,4.32C160.7,52.7,154.69,106,149.23,124.64Z" fill="none" stroke="#e4ff26" stroke-linecap="round" stroke-linejoin="round" stroke-width="6"/><path d="M302.93,154.94c-138-2.9-151.18-5.73-162.62-9,4-8.48,7.3-15.79,8.92-21.31,5.46-18.62,11.47-71.94-.44-117.3,20.5,2.74,59,6.09,158.3,7.82C307.49,47.4,307.34,110.92,302.93,154.94Z" fill="none" stroke="#e4ff26" stroke-linecap="round" stroke-linejoin="round" stroke-width="6"/><path d="M104.45,379.81c10.82,15,9.48,14.92-2,14.76-2.76,4.05,10.47,8.39-16.5,8.39-26.08,0-20.44-.34-24.74-6.51-6.34-9.08,2.46-9.73-.29-19.39s-6.5-8.58-9.55-10.86c-2.55-1.9,9.35-40.3-3-88.83-1.67-24.3-4.37-5.85,2.75-29.53,3.16-27.39,7.68-26.43-.58-50.79-13.92-41-14-118-13.6-119.8C36.88,55.68,47.33,45.91,49,41,56.37,55.38,87.92,131,140.31,146c-16.75,35.21-45,49-28.51,113.21-6.21,9.4-24.4,57.35-19.35,78.54,0,30.48-.36,19.93,7.66,32.85C102.48,374.37,99.33,372.69,104.45,379.81Z" fill="none" stroke="#e4ff26" stroke-linecap="round" stroke-linejoin="round" stroke-width="6"/><path d="M603.25,138.44c-14.11-.08-61,19.69-119.38,19.1,16.74-49.65,27.8-109.49,31.73-132.6C536,28,558,30.56,573.4,31,577.54,63,587.94,102.31,603.25,138.44Z" fill="none" stroke="#e4ff26" stroke-linecap="round" stroke-linejoin="round" stroke-width="6"/><path d="M515.6,24.94c-3.93,23.11-15,83-31.73,132.6-57.4-.66-31.48-.27-88.39-1,0,0,9.78-117.36,9.78-140.33C498.2,16.62,443.19,14.22,515.6,24.94Z" fill="none" stroke="#e4ff26" stroke-linecap="round" stroke-linejoin="round" stroke-width="6"/><path d="M405.26,16.19c0,23-9.78,140.33-9.78,140.33-26.47-.37-62.18-1-92.55-1.58,4.41-44,4.56-107.54,4.16-139.78C334.78,15.65,367.19,16,405.26,16.19Z" fill="none" stroke="#e4ff26" stroke-linecap="round" stroke-linejoin="round" stroke-width="6"/><path d="M483.87,157.54c-5,14.9-10.74,10.62-17.22,26.73a684.9,684.9,0,0,1-42.19,87.5c.34-25.82-.16-16.55-49.27-36.81-33.31-13.73-58.35,2.51-94.44,5,11.83-31.18,18.49-48.29,22.18-85.06C376.18,156.47,436.46,157,483.87,157.54Z" fill="none" stroke="#e4ff26" stroke-linecap="round" stroke-linejoin="round" stroke-width="6"/><path d="M703.07,155.39c-6.63,2.9-7.19,1.69-9.4,2.16-10.85,2.3-15-2.4-18.38-4.49-6.37-3.94-41.47-10.25-41.53-10.27-7.47-2.27-16-8.15-26-4.34h-4.47C587.94,102.31,577.54,63,573.4,31c59.51,1.89,47.35-11.7,63-16.72,8.28-2.65,17,5.72,19.1,5.22,5.17-1.3,8-6.63,10-7,3.41,2.72,5.1-2.77,8.39-3,4.82,4.15-13.51,14.7-13.89,17.38,1.13,1.48.89,4.5,4.2,9.83,1.3,2.09,3.2,3.72,4.63,5.65.8,1.07,1.23,2.38,2,3.46,30.73,26.89,19.14,42.86,22,48.34.13.26,21.17,26.42,23.73,30.67C721.93,133.81,717.81,148.93,703.07,155.39Z" fill="none" stroke="#e4ff26" stroke-linecap="round" stroke-linejoin="round" stroke-width="6"/><path d="M302.93,154.94c-3.69,36.77-10.35,53.88-22.18,85.06-52.73,3.68-90.91-27.89-99.09-28.24,4.11-49.1-31-48.08-25.59-62.7C179.35,151.65,236.66,153.54,302.93,154.94Z" fill="none" stroke="#e4ff26" stroke-linecap="round" stroke-linejoin="round" stroke-width="6"/><path d="M181.66,211.76c-5.64-.24-10.72,5.26-25.11,20.9-4.1,4.44-6.61,4.35-8,6.36-1.8,2.68,1.58,10.2,0,13.31-1,1.92-2.24,1.38-4.05,2.32-.94.48-1.43,1.32-2.75,1.44-6-5.94-.26-13.72-8.4-11.42-12.81,3.6-13.8.81-15.77,2.3-2.93,2.24,2.14,10.57-4.34,10.57-.34.1-.85.66-1.48,1.62C95.35,195,123.55,181.16,140.31,146a95.77,95.77,0,0,0,15.76,3.11C150.68,163.68,185.77,162.66,181.66,211.76Z" fill="none" stroke="#e4ff26" stroke-linecap="round" stroke-linejoin="round" stroke-width="6"/><path d="M458.24,306.59c-2.34,7.81-3.56,54-1.73,59.61.95,3,2.39,3.75,3.76,5.95,1,1.65,1.23,4,2.31,5.63,11.86,18.13,21.75,24.61,5.79,24.61-27.29,0-25,.39-28.65-4.49-1.58-2.13-4.12-3.61-5.21-6.22-6.75-16.23,6.41-17.58-4.19-25-1.62-1.14-3.14-1.17-3.91-4.35,0-3.91-1.58-3.35-2.32-6.51,0-10,4.34-25.16,4.34-39.64,0-31.61-4.33-12-4-44.38a684.26,684.26,0,0,0,42.19-87.5c6.48-16.11,12.2-11.83,17.22-26.73,9,.1,17.7-.29,26.05-1,10.4,26,14.45,73.24,14.45,73.24-2.14,1-1.88,1.49-14.18,9.26-22,13.89-35.82,17-37,18.67-2.18,2.87-6.28,23.6-6.37,23.87S459.42,302.67,458.24,306.59Z" fill="none" stroke="#e4ff26" stroke-linecap="round" stroke-linejoin="round" stroke-width="6"/><path d="M604,140.13c-14.15,7.26-16.17,20.9-34.17,40.43-11,11.94-11.94,11.91-14.61,15.91-6.93,10.41-6.43,28.17-18.52,31.55-3.38.94-5.22-1.52-12.3,1.74,0,0-4-47.22-14.45-73.24C564,151.82,601.26,133.79,604,140.13Z" fill="none" stroke="#e4ff26" stroke-linecap="round" stroke-linejoin="round" stroke-width="6"/><text transform="translate(79.34 78.19)" font-size="20" fill="#d0003a" font-family="DunbarTall-Bold, Dunbar Tall" font-weight="700"><tspan letter-spacing="-0.02em">R</tspan><tspan x="12.08" y="0">UMP</tspan></text><text transform="translate(48.26 157.41)" font-size="20" fill="#d0003a" font-family="DunbarTall-Bold, Dunbar Tall" font-weight="700"><tspan letter-spacing="-0.04em">R</tspan><tspan x="11.76" y="0">OUND</tspan></text><text transform="translate(173.2 86.25)" font-size="20" fill="#d0003a" font-family="DunbarTall-Bold, Dunbar Tall" font-weight="700">SIR<tspan x="28.38" y="0" letter-spacing="-0.03em">L</tspan><tspan x="37.66" y="0">OIN</tspan></text><text transform="translate(191.77 184.54)" font-size="20" fill="#d0003a" font-family="DunbarTall-Bold, Dunbar Tall" font-weight="700">FLANK</text><text transform="translate(351.02 192.4)" font-size="20" fill="#d0003a" font-family="DunbarTall-Bold, Dunbar Tall" font-weight="700">PL<tspan x="21.76" y="0" letter-spacing="-0.05em">A</tspan><tspan x="35.94" y="0">TE</tspan></text><text transform="translate(462.06 219.94)" font-size="14.8" fill="#d0003a" font-family="DunbarTall-Bold, Dunbar Tall" font-weight="700">SHANK</text><text transform="translate(518.21 172.03)" font-size="14.8" fill="#d0003a" font-family="DunbarTall-Bold, Dunbar Tall" font-weight="700">BRISKET</text><text transform="translate(333.71 92.12)" font-size="20" fill="#d0003a" font-family="DunbarTall-Bold, Dunbar Tall" font-weight="700">RIB</text><text transform="translate(417.48 92.12)" font-size="20" fill="#d0003a" font-family="DunbarTall-Bold, Dunbar Tall" font-weight="700">CHUCK</text><text transform="translate(524.37 104.43)" font-size="20" fill="#d0003a" font-family="DunbarTall-Bold, Dunbar Tall" font-weight="700">N<tspan x="15.34" y="0" letter-spacing="-0.01em">E</tspan><tspan x="25.64" y="0" letter-spacing="0em">CK</tspan></text></g></g></svg>